<?xml version="1.0" encoding="UTF-8"?>
<svg id="Layer_1" data-name="Layer 1" xmlns="http://www.w3.org/2000/svg" viewBox="0 0 69.17 77.62">
  <defs>
    <style>
      .logo {
        fill: #9AACCC;
        stroke-width: 0px;
      }
      @media (prefers-color-scheme: light) {
        .logo {
          fill: #4F46E5;
          stroke-width: 0px;
        }
      }
    </style>
  </defs>
  <path class="logo" d="m59.94,46.72c-5.71,11.31-18.24,17.22-30.5,14.84l-3.66,6.41v.02c-2.53,4.35-8.18,5.87-12.54,3.35-4.35-2.51-5.87-8.17-3.35-12.53l5.45-9.43h-.01l3.14-5.43h0s2.31-4.01,2.31-4.01c1.06-1.85,3.71-1.91,4.86-.11.1.15.2.31.31.45.01.02.03.05.05.07.08.11.16.22.24.33.04.04.07.09.11.14.06.08.13.16.2.24.05.06.1.12.15.17.05.06.09.1.14.15,2.78,3.01,7.07,4.24,11.11,3.01.43-.13.85-.28,1.26-.46.14-.07.29-.14.43-.21.33-.16.65-.35.97-.55.63-.39,1.19-.84,1.71-1.33.02-.02.04-.03.05-.05.09-.09.17-.17.26-.26.05-.05.09-.1.14-.15,1.87-2.01,2.95-4.71,2.88-7.61-.02-1.19-.24-2.35-.63-3.43-.01-.03-.02-.06-.03-.08-.02-.07-.05-.13-.07-.19-.05-.12-.1-.24-.15-.36,0-.02-.01-.04-.02-.05-.22-.5-.47-.98-.77-1.45-.4-.63-.84-1.2-1.33-1.71l-.07-.07c-.08-.08-.16-.17-.25-.25-.06-.06-.12-.11-.18-.17-.02-.02-.04-.04-.06-.06-1.28-1.15-2.84-2.01-4.59-2.46-1.91-.49-3.86-.44-5.66.06-.03.01-.06.02-.09.03-.1.03-.21.06-.32.1-.82.27-1.63.65-2.41,1.13-1.46.92-2.71,2.19-3.62,3.77l-4.93-2.85c1.38-2.39,3.29-4.33,5.53-5.73h0c1.35-.85,2.77-1.47,4.22-1.89.03-.01.05-.01.08-.02.17-.05.33-.09.5-.13.1-.03.19-.05.29-.07.12-.03.24-.06.36-.08,2.42-.51,4.97-.48,7.47.16,1.8.46,3.46,1.21,4.95,2.19.35.22.69.47,1.01.72.03.02.06.04.09.06.17.14.34.28.51.42,1.27,1.07,2.4,2.34,3.33,3.81.4.65.76,1.31,1.07,1.99.01.03.02.06.04.09.05.12.1.24.15.35.05.12.1.24.15.37.04.1.08.2.11.31.07.18.14.38.2.57.02.04.04.09.05.14.47,1.48.74,3.04.78,4.66.07,3.29-.84,6.42-2.5,9.08-.03.05-.07.11-.1.16-.09.14-.18.28-.27.41-.07.11-.14.21-.22.32-.05.07-.1.14-.15.2-1.11,1.51-2.48,2.85-4.12,3.94-.05.03-.09.06-.14.09-.06.05-.12.09-.19.13-.09.06-.18.11-.28.17-.03.02-.06.04-.1.06-.16.1-.32.19-.49.28-.03.02-.06.04-.09.05-.16.09-.33.18-.5.26-.04.02-.08.04-.13.07-.15.07-.3.14-.45.21-.07.03-.14.06-.21.09-.13.06-.26.11-.38.16-.11.05-.21.09-.31.12-.1.04-.19.08-.28.11-.16.06-.32.11-.48.16-.03.01-.06.02-.09.03-.09.03-.18.06-.27.09-5.65,1.71-11.67.25-15.9-3.57l-3.44,5.96-5.44,9.43c-.99,1.71-.44,3.76,1.27,4.75,1.14.66,2.43.64,3.46.04.51-.3.96-.74,1.29-1.31l4.65-8.15c.65-1.14,1.99-1.69,3.24-1.33,10.36,2.9,21.28-1.91,26.14-11.51,4.85-9.59,2.25-21.24-6.22-27.86-8.48-6.62-20.4-6.33-28.54.69-7,6.04-9.48,15.58-6.66,24.07l-5.18,2.45c-3.86-10.8-.8-23.12,8.12-30.83,5.08-4.39,11.38-6.67,17.73-6.83.39,0,.79,0,1.19,0,5.95.1,11.88,2.08,16.85,5.96,10.59,8.28,13.85,22.93,7.78,34.92Z"/>
</svg>
