<?xml version="1.0" encoding="UTF-8"?>
<svg id="Layer_1" data-name="Layer 1" xmlns="http://www.w3.org/2000/svg" viewBox="0 0 311.83 75.81">
  <defs>
    <style>
      .cls-1 {
        fill: #4f46e5;
      }

      .cls-1, .cls-2 {
        stroke-width: 0px;
      }

      .cls-2 {
        fill: #111827;
      }
    </style>
  </defs>
  <path class="cls-1" d="m33.63,4.27c-.4,0-.79,0-1.19,0-6.35.15-12.64,2.44-17.73,6.83C5.79,18.81,2.73,31.14,6.6,41.93l5.18-2.45c-2.82-8.5-.34-18.03,6.66-24.07,8.14-7.03,20.07-7.32,28.54-.69,8.47,6.63,11.07,18.27,6.22,27.87-4.86,9.6-15.78,14.4-26.13,11.5-1.26-.35-2.59.2-3.24,1.33l-4.65,8.15c-.99,1.71-3.04,2.26-4.75,1.27-1.71-.99-2.26-3.04-1.27-4.75l5.45-9.43,3.44-5.96c4.23,3.82,10.25,5.28,15.9,3.57.09-.03.18-.06.27-.09.03,0,.06-.02.09-.03.16-.05.32-.11.48-.16.09-.03.19-.07.28-.11.1-.04.21-.08.31-.12.13-.05.26-.11.38-.16.07-.03.14-.06.21-.1.15-.07.3-.14.45-.21.04-.02.09-.04.13-.06.17-.08.33-.17.5-.26.03-.02.06-.04.09-.05.16-.09.33-.18.49-.28.03-.02.07-.04.1-.06.09-.06.19-.11.28-.17.07-.04.13-.09.19-.13.05-.03.09-.06.14-.09,1.64-1.09,3.01-2.43,4.12-3.94.05-.07.1-.14.15-.21.08-.1.15-.21.22-.31.09-.14.18-.28.27-.41.03-.05.07-.11.1-.16,1.65-2.66,2.57-5.8,2.49-9.09-.03-1.61-.3-3.18-.78-4.66-.01-.05-.03-.09-.05-.14-.06-.19-.13-.38-.2-.57-.04-.1-.08-.21-.12-.31-.05-.12-.1-.24-.15-.36-.05-.12-.1-.23-.15-.35h0s-.03-.06-.04-.09c-.31-.68-.66-1.35-1.07-1.99-.93-1.47-2.06-2.74-3.33-3.81-.17-.14-.34-.28-.51-.42-.03-.02-.05-.04-.08-.06-.33-.25-.66-.5-1.01-.72-1.49-.98-3.15-1.72-4.95-2.18-2.5-.64-5.05-.67-7.47-.17-.12.03-.24.05-.37.08-.09.02-.19.04-.29.07-.17.04-.33.09-.5.13-.03,0-.05.01-.08.02-1.45.42-2.88,1.04-4.22,1.88h0c-2.23,1.4-4.15,3.34-5.53,5.73l4.93,2.85c.91-1.57,2.16-2.85,3.62-3.77h0c.77-.48,1.58-.86,2.41-1.13.11-.03.21-.07.32-.1.03-.01.06-.02.09-.03,1.8-.51,3.75-.56,5.66-.06,1.75.45,3.32,1.31,4.59,2.46.02.02.04.04.06.06.06.06.12.11.18.17.08.08.17.16.25.25.02.02.04.04.07.07.49.52.94,1.09,1.33,1.71.3.47.55.95.77,1.45,0,.02.02.03.02.05.05.12.1.24.15.36.02.06.05.13.07.19.01.03.02.06.03.08.38,1.08.6,2.24.63,3.43.06,2.9-1.02,5.6-2.88,7.61-.05.05-.09.1-.14.15-.09.09-.17.17-.26.26-.02.02-.04.04-.05.05-.52.49-1.08.94-1.71,1.33-.32.2-.64.38-.97.55-.14.07-.29.14-.43.2-.41.18-.83.34-1.26.47-4.04,1.22-8.33,0-11.11-3.01-.04-.05-.09-.1-.13-.15-.05-.06-.1-.12-.15-.18-.07-.08-.14-.16-.2-.24-.04-.05-.07-.09-.1-.13-.08-.11-.17-.22-.25-.33-.02-.02-.03-.05-.05-.07-.1-.15-.21-.3-.3-.45-1.15-1.8-3.8-1.74-4.87.11l-5.45,9.44h0l-5.45,9.43c-2.52,4.36-1,10.02,3.36,12.53,4.36,2.52,10.01,1,12.53-3.36l-2.55-1.47,2.56,1.46,3.66-6.42c12.26,2.38,24.79-3.53,30.51-14.83,6.07-11.99,2.8-26.64-7.79-34.92-4.96-3.88-10.9-5.86-16.85-5.96h0Z"/>
  <path class="cls-2" d="m142.6,49.65c-.09.18-.19.35-.29.52.1-.17.2-.34.29-.52Zm.51-1.29c-.14.44-.3.86-.49,1.25.19-.39.36-.81.49-1.25Zm-5.31-7.81h5.02v3.96c0,1.42-.59,2.55-1.77,3.39-1.14.8-2.58,1.19-4.3,1.19-1.5,0-2.7-.3-3.58-.91-.89-.62-1.33-1.53-1.33-2.71v-1.12c0-2.54,2.03-3.79,5.97-3.79Zm19.34-16v5.41h6.47v17.73h-6.47v5.41h19.19v-5.41h-5.81v-23.13h-13.38Zm38.85-.67c-2.32,0-4.14.57-5.45,1.7-1.29,1.1-2.24,2.43-2.87,3.97l-.03.07h-.47v-5.07h-6.91v28.54h6.91v-19.12c0-.79.15-1.48.46-2.06.34-.58.78-1.05,1.31-1.43.57-.42,1.19-.72,1.87-.91.68-.19,1.4-.28,2.15-.28,3.68,0,5.52,2.14,5.52,6.36v17.45h6.91v-18.45c0-3.47-.89-6.12-2.65-7.95-1.72-1.87-3.98-2.81-6.77-2.81Zm-58.25,0c-3.15,0-5.71.56-7.69,1.66-1.92,1.05-3.31,2.36-4.19,3.9l3.91,3.32c.78-1.08,1.69-1.98,2.79-2.68,1.14-.72,2.63-1.08,4.46-1.08,2.03,0,3.51.47,4.43,1.43.92.96,1.37,2.36,1.37,4.2v2.01h-5.19c-8.47,0-12.65,2.87-12.65,8.58,0,2.69.85,4.77,2.53,6.27,1.68,1.5,3.96,2.26,6.84,2.26,2.21,0,4.07-.48,5.57-1.43,1.5-.99,2.51-2.36,3.02-4.12l.03-.08h.46v.1c.2,1.54.75,2.74,1.65,3.61.94.83,2.27,1.25,3.99,1.25h4.07v-5.13h-3.4v-13.66c0-3.47-1.07-6.05-3.19-7.77-2.1-1.76-5.02-2.65-8.79-2.65Zm86.1-2.51h.62l4.36,16.12h-9.33l4.35-16.12Zm27.03-1.22h6.08c1.98,0,3.43.41,4.31,1.26.88.81,1.32,2.11,1.32,3.87v2.12c0,1.76-.44,3.08-1.32,3.93-.89.81-2.33,1.2-4.31,1.2h-6.08v-12.38Zm-170.51,0h6.08c1.98,0,3.43.41,4.32,1.26.88.81,1.32,2.11,1.32,3.87v2.12c0,1.76-.43,3.08-1.32,3.93-.89.81-2.33,1.2-4.32,1.2h-6.08v-12.38Zm193.87-5.74v38.68h6.13v-17.89l-.34-11.37h.69l7.44,16.43h3.64l7.44-16.43h.69l-.34,11.37v17.89h6.13V14.41h-7.96l-7.27,14.93h-.53l-7.21-14.93h-8.51Zm-30.44,0v38.68h7.08v-14.83h7.58c3.77,0,6.63-1.07,8.61-3.2,1.98-2.13,2.98-5.04,2.98-8.73s-1-6.6-2.98-8.73c-1.98-2.13-4.85-3.2-8.61-3.2h-14.66Zm-24.46,0l-10.87,38.68h7.13l2.67-9.86h11.71l2.73,9.86h7.51l-10.92-38.68h-9.97Zm-116.68,0v5.4h6.14v27.88h-6.14v5.41h19.24v-5.41h-6.2V14.41h-13.05Zm-29.37,0v38.68h7.08v-14.83h7.58c3.77,0,6.64-1.07,8.61-3.2,1.98-2.13,2.98-5.04,2.98-8.73s-1-6.6-2.98-8.73c-1.98-2.13-4.85-3.2-8.61-3.2h-14.66Z"/>
  <path class="cls-1" d="m166.93,13.32c-1.66,0-2.81.35-3.49,1.02-.65.68-.97,1.51-.97,2.49v1.34c0,.98.32,1.8.97,2.49.67.67,1.83,1.02,3.49,1.02s2.79-.35,3.43-1.02c.68-.68,1.03-1.52,1.03-2.49v-1.34c0-.97-.34-1.8-1.03-2.49-.64-.68-1.77-1.02-3.43-1.02Z"/>
</svg>